<?xml version="1.0" standalone="no"?>
<!DOCTYPE svg PUBLIC "-//W3C//DTD SVG 20010904//EN"
 "http://www.w3.org/TR/2001/REC-SVG-20010904/DTD/svg10.dtd">
<svg version="1.0" xmlns="http://www.w3.org/2000/svg"
 width="512.000000pt" height="512.000000pt" viewBox="0 0 512.000000 512.000000"
 preserveAspectRatio="xMidYMid meet">

<g transform="translate(0.000000,512.000000) scale(0.100000,-0.100000)"
fill="#2563eb" stroke="none">
<path d="M2325 4811 c-107 -9 -246 -28 -295 -41 -19 -5 -69 -16 -110 -25 -97
-21 -168 -43 -202 -61 -14 -8 -35 -14 -46 -14 -12 0 -23 -4 -27 -9 -3 -5 -19
-13 -36 -16 -52 -12 -116 -43 -99 -49 8 -3 72 -10 142 -15 164 -13 185 -23 92
-45 -125 -31 -145 -36 -162 -45 -9 -5 -66 -31 -127 -57 -107 -48 -323 -165
-334 -182 -3 -5 -46 -38 -96 -72 -130 -92 -308 -271 -431 -433 -58 -77 -103
-141 -101 -143 2 -3 60 33 129 78 144 97 138 93 265 157 98 50 305 125 325
119 5 -2 -17 -23 -51 -46 -122 -86 -373 -327 -502 -484 -142 -171 -177 -215
-204 -258 -16 -25 -53 -83 -84 -129 -61 -93 -134 -238 -173 -346 -40 -107 -85
-255 -93 -305 l-7 -45 19 25 c11 14 48 67 82 118 92 139 161 222 307 367 142
141 160 157 250 225 32 24 82 63 109 86 28 22 68 51 90 65 22 13 47 29 56 34
9 6 36 21 60 34 52 29 47 19 -42 -74 -58 -61 -91 -104 -175 -230 -25 -38 -60
-90 -77 -115 -66 -98 -195 -366 -239 -495 -5 -16 -14 -39 -19 -50 -20 -45 -58
-222 -70 -330 -13 -111 -5 -310 16 -390 40 -151 83 -250 183 -425 55 -96 220
-315 230 -306 2 2 -3 30 -12 63 -61 228 -59 528 6 773 10 41 23 89 27 106 19
72 95 249 146 339 30 54 55 99 55 100 0 4 66 102 90 133 65 84 95 118 203 224
65 65 146 137 180 161 78 56 271 169 317 187 19 7 39 17 45 22 5 4 15 8 23 8
8 0 28 6 45 14 53 24 137 44 143 35 3 -5 1 -9 -5 -9 -22 0 -137 -78 -199 -134
-111 -101 -161 -157 -220 -244 -82 -120 -97 -146 -127 -226 -15 -39 -31 -80
-35 -91 -25 -62 -42 -176 -46 -300 -4 -141 -3 -144 26 -70 5 11 18 50 30 87
73 229 297 546 500 707 132 105 350 234 472 281 29 11 62 25 73 30 34 16 238
88 282 100 45 11 67 30 35 30 -30 0 -201 60 -257 90 -128 69 -315 238 -315
284 0 17 2 18 18 4 29 -26 154 -71 209 -76 l53 -4 -35 74 c-35 77 -55 184 -55
301 0 42 -5 63 -17 76 -27 27 -108 80 -151 98 -61 25 -189 53 -248 53 -30 0
-54 4 -54 8 0 17 187 42 317 42 159 0 224 -13 363 -71 57 -24 159 -91 338
-220 210 -153 433 -268 524 -272 59 -2 71 18 66 116 -3 42 -2 77 2 77 4 0 23
-12 43 -27 201 -156 203 -157 228 -126 21 24 120 96 153 111 15 6 62 12 102
12 l74 0 -6 28 c-10 41 -80 182 -123 250 -74 114 -244 276 -402 382 -12 8 -34
25 -49 38 -15 12 -31 22 -35 22 -4 0 -19 8 -33 19 -30 21 -265 141 -277 141
-4 0 -21 6 -38 14 -60 26 -162 64 -215 81 -204 62 -547 95 -787 76z"/>
<path d="M2829 3753 c-45 -133 32 -289 162 -327 68 -21 87 -20 162 5 90 30
103 47 32 41 -60 -5 -138 12 -156 34 -9 11 -4 21 25 48 20 19 36 37 36 40 0 3
-33 31 -72 63 -40 32 -93 75 -117 95 -24 21 -47 38 -52 38 -4 0 -13 -17 -20
-37z"/>
<path d="M4200 3579 c-109 -29 -205 -93 -440 -293 -58 -49 -145 -129 -193
-176 -85 -83 -91 -88 -143 -94 -51 -6 -99 -20 -171 -52 -17 -8 -34 -14 -38
-14 -3 0 -37 -17 -73 -39 -37 -21 -94 -53 -126 -71 -33 -18 -64 -37 -70 -41
-6 -5 -36 -29 -67 -54 -56 -44 -159 -152 -159 -166 0 -8 42 3 85 21 80 33 350
105 475 126 125 21 340 34 460 28 106 -5 258 -28 295 -44 11 -5 47 -16 80 -26
79 -23 215 -86 280 -128 76 -51 175 -161 212 -236 53 -110 65 -182 61 -373 -2
-92 0 -167 3 -167 8 0 97 122 136 185 45 75 107 211 133 290 12 39 31 94 42
124 26 75 51 272 43 346 -9 86 -35 206 -50 235 -7 14 -28 54 -45 90 -55 109
-98 167 -199 261 -141 132 -327 250 -420 264 -20 4 -45 8 -56 9 -11 2 -36 0
-55 -5z m2 -298 c13 -5 39 -23 58 -40 l35 -30 -65 -1 c-60 0 -165 -23 -234
-49 -24 -10 -32 -9 -44 2 -21 22 -3 46 62 86 83 50 125 57 188 32z"/>
<path d="M3430 2593 c-49 -4 -279 -50 -312 -62 -11 -4 116 -5 283 -3 316 5
483 -7 604 -43 146 -43 246 -77 300 -103 107 -52 83 -19 -48 68 -49 33 -95 60
-101 60 -7 0 -16 4 -22 9 -18 17 -203 62 -290 71 -85 9 -319 11 -414 3z"/>
<path d="M2128 2328 c-84 -83 -146 -172 -213 -306 -95 -192 -116 -380 -65
-582 22 -89 124 -261 204 -343 44 -45 109 -98 114 -93 2 2 -15 43 -38 91 -41
91 -71 191 -89 306 -16 94 -14 318 4 440 15 109 51 267 65 284 4 6 18 42 30
80 21 64 49 134 72 178 18 35 -11 16 -84 -55z"/>
<path d="M3627 1943 c-47 -68 -60 -119 -61 -238 -1 -119 11 -167 65 -278 77
-157 223 -284 406 -353 69 -26 93 -25 52 3 -25 18 -43 35 -180 178 -129 136
-194 247 -235 400 -19 74 -25 221 -11 288 5 21 4 37 -1 37 -5 0 -21 -17 -35
-37z"/>
<path d="M1184 1726 c-9 -24 2 -333 15 -416 7 -41 19 -89 26 -107 8 -17 15
-38 15 -47 0 -9 4 -24 9 -34 4 -9 23 -48 41 -87 62 -134 120 -206 275 -339 49
-42 223 -156 239 -156 2 0 39 -16 83 -36 127 -58 134 -61 223 -90 47 -15 94
-31 105 -35 29 -11 115 -36 150 -43 27 -6 25 -3 -18 26 -101 69 -379 286 -466
363 -67 60 -160 156 -190 195 -14 19 -32 42 -40 50 -26 27 -124 163 -193 266
-83 125 -143 234 -188 339 -19 44 -40 89 -47 100 -7 11 -13 27 -13 37 0 23
-19 33 -26 14z"/>
<path d="M2496 1535 c12 -82 42 -192 66 -245 13 -30 33 -75 43 -100 87 -205
273 -407 488 -530 109 -62 283 -126 421 -155 24 -5 26 -4 14 7 -20 19 -76 58
-83 58 -26 0 -302 232 -461 387 -176 173 -357 387 -391 463 -3 8 -19 31 -35
51 -15 20 -28 41 -28 45 0 5 -9 20 -21 34 l-20 25 7 -40z"/>
<path d="M3575 1085 c44 -40 214 -155 231 -155 3 0 20 -6 37 -14 58 -26 144
-46 199 -46 l53 1 -70 38 c-150 83 -311 159 -400 189 -33 11 -69 23 -80 27
-11 3 3 -14 30 -40z"/>
</g>
</svg>