<?xml version="1.0" encoding="UTF-8"?>
<svg version="1.2" baseProfile="tiny" xmlns="http://www.w3.org/2000/svg" viewBox="0 0 200 200" width="200" height="200">
  <title>FleetNest Logo</title>
  <desc>FleetNest TMS - Professional fleet management platform</desc>
  
  <!-- Shield background with orange border -->
  <path d="M100 10 C140 10 180 30 180 50 C180 80 180 120 160 160 C140 180 120 190 100 190 C80 190 60 180 40 160 C20 120 20 80 20 50 C20 30 60 10 100 10 Z" 
        fill="#FF7A00" 
        stroke="none"/>
  
  <!-- Inner shield (navy blue) -->
  <path d="M100 25 C130 25 165 40 165 55 C165 80 165 115 148 148 C132 165 116 173 100 173 C84 173 68 165 52 148 C35 115 35 80 35 55 C35 40 70 25 100 25 Z" 
        fill="#1E3A8A" 
        stroke="none"/>
  
  <!-- Fleet symbol - stylized H with curves representing movement/connection -->
  <!-- Left curve -->
  <path d="M60 70 C60 60 65 55 75 55 C85 55 90 60 90 70 L90 95 L75 95 C65 95 60 90 60 80 L60 70 Z M60 120 C60 130 65 135 75 135 C85 135 90 130 90 120 L90 105 L75 105 C65 105 60 110 60 120 Z" 
        fill="#FFFFFF" 
        stroke="none"/>
  
  <!-- Right curve -->
  <path d="M140 70 C140 60 135 55 125 55 C115 55 110 60 110 70 L110 95 L125 95 C135 95 140 90 140 80 L140 70 Z M140 120 C140 130 135 135 125 135 C115 135 110 130 110 120 L110 105 L125 105 C135 105 140 110 140 120 Z" 
        fill="#FFFFFF" 
        stroke="none"/>
  
  <!-- Horizontal connector -->
  <rect x="75" y="90" width="50" height="20" 
        fill="#FFFFFF" 
        stroke="none"/>
</svg>