<?xml version="1.0" encoding="UTF-8"?>
<svg version="1.2" baseProfile="tiny" xmlns="http://www.w3.org/2000/svg" viewBox="0 0 128 128" width="128" height="128">
  <title>FleetNest BIMI Logo</title>
  <desc>FleetNest TMS - Professional fleet management platform - BIMI compliant</desc>
  
  <!-- Main shield background (orange gradient) -->
  <defs>
    <linearGradient id="orangeGrad" x1="0%" y1="0%" x2="100%" y2="100%">
      <stop offset="0%" style="stop-color:#FD8109;stop-opacity:1" />
      <stop offset="100%" style="stop-color:#FF7A00;stop-opacity:1" />
    </linearGradient>
    <linearGradient id="blueGrad" x1="0%" y1="0%" x2="100%" y2="100%">
      <stop offset="0%" style="stop-color:#1E3A8A;stop-opacity:1" />
      <stop offset="100%" style="stop-color:#023059;stop-opacity:1" />
    </linearGradient>
  </defs>
  
  <!-- Outer shield with orange border -->
  <path d="M64 8 C92 8 120 20 120 32 C120 52 120 76 108 104 C96 120 80 124 64 124 C48 124 32 120 20 104 C8 76 8 52 8 32 C8 20 36 8 64 8 Z" 
        fill="url(#orangeGrad)" 
        stroke="none"/>
  
  <!-- Inner shield (navy blue) -->
  <path d="M64 18 C86 18 110 26 110 36 C110 52 110 72 100 94 C90 106 77 110 64 110 C51 110 38 106 28 94 C18 72 18 52 18 36 C18 26 42 18 64 18 Z" 
        fill="url(#blueGrad)" 
        stroke="none"/>
  
  <!-- Fleet symbol - stylized truck/logistics icon -->
  <!-- Main truck body -->
  <rect x="32" y="50" width="32" height="16" 
        fill="#FFFFFF" 
        rx="2"/>
  
  <!-- Truck cab -->
  <rect x="26" y="54" width="10" height="12" 
        fill="#FFFFFF" 
        rx="1"/>
  
  <!-- Truck wheels -->
  <circle cx="34" cy="70" r="3" 
          fill="#FD8109" 
          stroke="#FFFFFF" 
          stroke-width="1"/>
  <circle cx="56" cy="70" r="3" 
          fill="#FD8109" 
          stroke="#FFFFFF" 
          stroke-width="1"/>
  
  <!-- Connection lines representing network/connectivity -->
  <path d="M66 45 L82 35 M66 50 L86 50 M66 55 L82 65" 
        stroke="#FFFFFF" 
        stroke-width="2" 
        stroke-linecap="round"/>
  
  <!-- Network nodes -->
  <circle cx="82" cy="35" r="2" fill="#FFFFFF"/>
  <circle cx="86" cy="50" r="2" fill="#FFFFFF"/>
  <circle cx="82" cy="65" r="2" fill="#FFFFFF"/>
  
  <!-- Additional design elements -->
  <path d="M70 40 L94 40 M70 44 L90 44" 
        stroke="#FD8109" 
        stroke-width="1.5" 
        stroke-linecap="round"/>
  
  <!-- Fleet text representation (geometric) -->
  <rect x="72" y="75" width="20" height="2" 
        fill="#FFFFFF" 
        rx="1"/>
  <rect x="72" y="79" width="16" height="2" 
        fill="#FFFFFF" 
        rx="1"/>
  <rect x="72" y="83" width="18" height="2" 
        fill="#FFFFFF" 
        rx="1"/>
  
  <!-- Corner decorative elements -->
  <path d="M25 25 L35 25 L25 35" 
        stroke="#FD8109" 
        stroke-width="1.5" 
        fill="none" 
        stroke-linecap="round" 
        stroke-linejoin="round"/>
  <path d="M103 25 L93 25 L103 35" 
        stroke="#FD8109" 
        stroke-width="1.5" 
        fill="none" 
        stroke-linecap="round" 
        stroke-linejoin="round"/>
</svg>